<svg width="101" height="101" viewBox="0 0 101 101" fill="none" xmlns="http://www.w3.org/2000/svg">
<path d="M50.5 100.219C37.3138 100.219 24.6676 94.9803 15.3435 85.6562C6.01946 76.3322 0.78125 63.686 0.78125 50.4998C0.78125 37.3135 6.01946 24.6674 15.3435 15.3433C24.6676 6.01924 37.3138 0.781029 50.5 0.781029C58.2481 0.755379 65.8906 2.57878 72.7925 6.09978C73.1994 6.30628 73.5617 6.59092 73.8586 6.93743C74.1556 7.28394 74.3814 7.68554 74.5231 8.11931C74.6648 8.55307 74.7197 9.01051 74.6846 9.46549C74.6496 9.92047 74.5253 10.3641 74.3188 10.771C74.1123 11.178 73.8276 11.5402 73.4811 11.8372C73.1346 12.1341 72.733 12.3599 72.2992 12.5016C71.8655 12.6433 71.408 12.6982 70.953 12.6632C70.4981 12.6281 70.0544 12.5038 69.6475 12.2973C63.727 9.24587 57.1606 7.6598 50.5 7.67228C42.0406 7.67228 33.7712 10.1802 26.7368 14.879C19.7025 19.5778 14.2191 26.2566 10.9797 34.0712C7.74036 41.8857 6.89045 50.4853 8.53743 58.7827C10.1844 67.0802 14.2543 74.7032 20.2328 80.6881C26.2112 86.673 33.8298 90.7512 42.1255 92.4071C50.4212 94.063 59.0216 93.2224 66.8397 89.9915C74.6577 86.7606 81.3424 81.2844 86.0489 74.2552C90.7553 67.2259 93.2721 58.9591 93.2813 50.4998C93.3054 50.1147 93.3054 49.7286 93.2813 49.3435C93.1954 48.4236 93.4785 47.5072 94.0683 46.7959C94.6581 46.0847 95.5063 45.6369 96.4263 45.551C97.3462 45.4652 98.2626 45.7483 98.9739 46.3381C99.6851 46.9279 100.133 47.7761 100.219 48.696V50.4998C100.207 63.6823 94.9644 76.3213 85.643 85.6427C76.3215 94.9641 63.6825 100.206 50.5 100.219Z" fill="#0AB39C"/>
<path d="M49.6674 66.2711C49.2178 66.2778 48.7718 66.1908 48.3577 66.0156C47.9437 65.8404 47.5706 65.5809 47.2624 65.2536L24.9236 43.3311C24.274 42.6807 23.9092 41.7991 23.9092 40.8798C23.9092 39.9606 24.274 39.079 24.9236 38.4286C25.5876 37.7871 26.4748 37.4286 27.398 37.4286C28.3212 37.4286 29.2084 37.7871 29.8724 38.4286L49.7136 57.9923L94.3449 14.1011C95.0089 13.4596 95.896 13.1011 96.8193 13.1011C97.7425 13.1011 98.6296 13.4596 99.2936 14.1011C99.9432 14.7515 100.308 15.6331 100.308 16.5523C100.308 17.4716 99.9432 18.3532 99.2936 19.0036L52.2111 65.2536C51.8801 65.5892 51.4832 65.8529 51.0455 66.028C50.6078 66.2031 50.1386 66.2858 49.6674 66.2711Z" fill="#0AB39C"/>
</svg>
