<svg width="24" height="24" viewBox="0 0 24 24" fill="none" xmlns="http://www.w3.org/2000/svg">
<path d="M12 9.22223C11.7056 9.22683 11.4134 9.2736 11.1322 9.36112C11.2623 9.58982 11.3315 9.84804 11.3333 10.1111C11.3333 10.3154 11.2931 10.5177 11.2149 10.7064C11.1367 10.8951 11.0222 11.0666 10.8777 11.2111C10.7333 11.3555 10.5618 11.4701 10.3731 11.5483C10.1843 11.6264 9.98205 11.6667 9.77777 11.6667C9.51469 11.6649 9.25647 11.5956 9.02777 11.4656C8.84734 12.0913 8.86837 12.758 9.08788 13.3712C9.3074 13.9844 9.71428 14.5129 10.2509 14.882C10.7875 15.251 11.4266 15.4419 12.0777 15.4276C12.7288 15.4132 13.3589 15.1944 13.8787 14.802C14.3986 14.4097 14.7818 13.8637 14.9741 13.2415C15.1664 12.6193 15.158 11.9523 14.9502 11.3351C14.7424 10.7179 14.3456 10.1817 13.8161 9.80246C13.2866 9.42326 12.6513 9.22026 12 9.22223V9.22223ZM19.9033 11.9278C18.397 8.98861 15.4147 7 12 7C8.58527 7 5.60221 8.99 4.09665 11.9281C4.03311 12.0538 4 12.1926 4 12.3335C4 12.4743 4.03311 12.6132 4.09665 12.7389C5.60304 15.6781 8.58527 17.6667 12 17.6667C15.4147 17.6667 18.3978 15.6767 19.9033 12.7386C19.9669 12.6129 20 12.4741 20 12.3332C20 12.1924 19.9669 12.0535 19.9033 11.9278V11.9278ZM12 16.3334C9.25972 16.3334 6.74749 14.8056 5.39082 12.3333C6.74749 9.86112 9.25944 8.33334 12 8.33334C14.7406 8.33334 17.2525 9.86112 18.6092 12.3333C17.2528 14.8056 14.7406 16.3334 12 16.3334Z" fill="#080808"/>
</svg>
