<svg width="160" height="32" viewBox="0 0 160 32" fill="none" xmlns="http://www.w3.org/2000/svg">
<path d="M16.0003 23.0267L24.2403 28L22.0537 18.6267L29.3337 12.32L19.747 11.5067L16.0003 2.66669L12.2537 11.5067L2.66699 12.32L9.94699 18.6267L7.76033 28L16.0003 23.0267Z" fill="#FFC01E"/>
<path d="M48.0003 23.0267L56.2403 28L54.0537 18.6267L61.3337 12.32L51.747 11.5067L48.0003 2.66669L44.2537 11.5067L34.667 12.32L41.947 18.6267L39.7603 28L48.0003 23.0267Z" fill="#FFC01E"/>
<path d="M80.0003 23.0267L88.2403 28L86.0537 18.6267L93.3337 12.32L83.747 11.5067L80.0003 2.66669L76.2537 11.5067L66.667 12.32L73.947 18.6267L71.7603 28L80.0003 23.0267Z" fill="#FFC01E"/>
<path d="M112 23.0267L120.24 28L118.054 18.6267L125.334 12.32L115.747 11.5067L112 2.66669L108.254 11.5067L98.667 12.32L105.947 18.6267L103.76 28L112 23.0267Z" fill="#FFC01E"/>
<path d="M144 23.0267L152.24 28L150.054 18.6267L157.334 12.32L147.747 11.5067L144 2.66669L140.254 11.5067L130.667 12.32L137.947 18.6267L135.76 28L144 23.0267Z" fill="#FFC01E"/>
</svg>
