<svg width="82" height="82" viewBox="0 0 82 82" fill="none" xmlns="http://www.w3.org/2000/svg">
<path d="M53.5152 40.2312C46.6238 36.5481 40.0262 33.1314 33.2817 29.5986V50.7477C40.3782 46.8869 47.8607 43.3541 53.546 40.2005L53.5152 40.2312Z" fill="white"/>
<path d="M78.4946 33.1929C78.6536 28.3018 77.5797 23.4494 75.3718 19.0821C73.897 17.2603 71.8181 16.0275 69.5122 15.6073C60.0407 14.785 50.5333 14.4509 41.0274 14.6063C31.5228 14.4501 22.0164 14.7843 12.5461 15.6073C10.6669 15.9558 8.93128 16.8373 7.53728 18.1391C4.47936 20.9749 4.25728 25.83 3.79603 29.9232C3.29195 37.2968 3.29195 44.6963 3.79603 52.07C3.88144 54.3797 4.22653 56.6723 4.82786 58.9033C5.23786 60.6322 6.06469 62.2312 7.24344 63.5603C8.63744 64.9338 10.4141 65.8563 12.3377 66.2082C19.7034 67.121 27.1259 67.4955 34.546 67.3288C46.4873 67.5202 57.0038 67.3186 69.3926 66.3858C71.3714 66.0465 73.1997 65.1121 74.6338 63.7072C75.5665 62.7778 76.2738 61.6503 76.6974 60.4067C77.9343 56.6654 78.5424 52.7431 78.4946 48.8037C78.6108 46.7708 78.6108 35.2258 78.4946 33.1895V33.1929ZM53.5188 40.2313L53.5051 40.2244C50.6693 41.7961 47.3961 43.4566 43.9453 45.2093C40.3651 47.0044 36.8103 48.8496 33.2819 50.7443V29.5952C36.6541 31.365 39.9888 33.1041 43.3439 34.8568C46.6923 36.613 50.0645 38.3897 53.5051 40.2244L53.5461 40.2005L53.5188 40.2313Z" fill="#EF3C23"/>
</svg>
