<svg width="184" height="38" viewBox="0 0 184 38" fill="none" xmlns="http://www.w3.org/2000/svg">
<g clip-path="url(#clip0_3005_22524)">
<mask id="mask0_3005_22524" style="mask-type:luminance" maskUnits="userSpaceOnUse" x="0" y="0" width="184" height="38">
<path d="M183.111 0H0V38H183.111V0Z" fill="white"/>
</mask>
<g mask="url(#mask0_3005_22524)">
<path d="M30.4838 0.27025L13.6147 18.421L31.9201 37.5561V37.986H23.0519L7.16121 21.1873V37.986H0V0.0483928H7.16121V16.0915L21.5877 0.0483928H30.4838V0.27025Z" fill="#EF3C23"/>
<path d="M41.1076 8.43741H46.0553V29.2851H41.1979L40.9411 26.2415C39.7546 28.6958 36.5 29.8812 34.1685 29.9229C27.9857 29.9645 23.4198 26.1583 23.4198 18.83C23.4198 11.6404 28.2008 7.87583 34.2934 7.91742C37.0691 7.91742 39.7546 9.2347 40.9411 11.3077L41.1076 8.43741ZM28.5755 18.837C28.5755 22.8165 31.3512 25.1876 34.7514 25.1876C42.8841 25.1876 42.8841 12.5349 34.7514 12.5349C31.3235 12.5349 28.5755 14.8644 28.5755 18.837Z" fill="#EF3C23"/>
<path d="M65.7833 29.2853V18.3726C65.7833 15.2042 64.0484 12.8262 60.7455 12.8262C57.5673 12.8262 55.4091 15.4885 55.4091 18.6639V29.2853H50.2881V8.39599H54.9027L55.2426 11.2247C57.3244 9.14476 59.4755 8.09787 62.0985 8.09787C67.0114 8.09787 70.9459 11.7793 70.9459 18.331V29.2853H65.7833Z" fill="#EF3C23"/>
<path d="M91.5969 8.43787V10.8921L81.9515 24.2105H91.6662V29.2856H74.0754V27.1293L84.0679 13.1316H74.8388V8.43787H91.5969Z" fill="#EF3C23"/>
<path d="M113.906 8.39574L118.478 24.0852L123.267 8.39574H128.978L121.699 29.3681H115.69L113.531 23.1978L111.664 16.2162L109.805 23.1978L107.647 29.3681H101.631L94.3099 8.39574H100.069L104.85 24.0852L109.381 8.39574H113.906Z" fill="#EF3C23"/>
<path d="M149.886 8.43741H154.841V29.2851H149.984L149.734 26.2415C148.547 28.6958 145.285 29.8812 142.961 29.9229C136.778 29.9645 132.206 26.1583 132.206 18.83C132.206 11.6404 136.993 7.87583 143.085 7.91742C145.862 7.91742 148.547 9.2347 149.734 11.3077L149.886 8.43741ZM137.396 18.837C137.396 22.8165 140.171 25.1876 143.571 25.1876C151.704 25.1876 151.704 12.5349 143.571 12.5349C140.108 12.5349 137.396 14.8644 137.396 18.837Z" fill="#EF3C23"/>
<path d="M179.35 8.43787L166.609 38.0003H160.933L164.833 28.9458L156.506 8.43787H162.515L165.686 17.4508L167.678 23.33L169.836 17.5756L173.646 8.4448L179.35 8.43787Z" fill="#EF3C23"/>
<path d="M166.686 37.9861H28.6175L23.7045 32.3496H168.976L166.686 37.9861Z" fill="#EF3C23"/>
<path d="M183.11 0H28.6444L22.9613 5.63656H180.66L183.11 0Z" fill="#EF3C23"/>
</g>
</g>
<defs>
<clipPath id="clip0_3005_22524">
<rect width="184" height="38" fill="white"/>
</clipPath>
</defs>
</svg>
